<svg xmlns="http://www.w3.org/2000/svg" fill="none" viewBox="0 0 20 23"><defs/><g clip-path="url(#clip0)"><path fill="#F6F5ED" d="M17.857 1.438H2.143c-.568 0-1.114.227-1.515.631A2.163 2.163 0 000 3.594v15.812c0 .572.226 1.12.628 1.525.401.404.947.631 1.515.631H8.27V14.72H5.458V11.5H8.27V9.045c0-2.791 1.652-4.334 4.182-4.334 1.211 0 2.478.218 2.478.218v2.74h-1.396c-1.375 0-1.804.859-1.804 1.74V11.5h3.07l-.49 3.22h-2.58v6.842h6.127c.569 0 1.114-.227 1.515-.631.402-.404.628-.953.628-1.525V3.594c0-.572-.226-1.12-.628-1.525a2.136 2.136 0 00-1.515-.631z"/></g><defs><clipPath id="clip0"><path fill="#fff" d="M0 0h20v23H0z"/></clipPath></defs></svg>