<svg width="139" height="139" viewBox="0 0 139 139" fill="none" xmlns="http://www.w3.org/2000/svg">
<rect width="139" height="139" fill="#1B3D69"/>
<path d="M27.9956 52.1103C27.6952 52.5344 27.5008 52.6758 27.4832 52.8525C26.9707 58.0479 25.9635 63.2609 27.3948 68.4386C27.7627 69.8309 27.6805 71.304 27.1599 72.6468C26.6393 73.9895 25.707 75.133 24.4967 75.9135C23.8959 73.2275 23.3481 70.7182 24.9032 68.2089C25.3656 67.4831 25.6278 66.6478 25.663 65.7879C25.7514 61.4231 25.6631 57.0406 25.8044 52.6581C25.854 51.5717 26.1782 50.5155 26.7469 49.5884C27.3155 48.6612 28.11 47.8934 29.0559 47.3567C34.481 43.5574 40.4185 44.0876 46.4268 44.8121C54.6488 45.7134 62.9446 45.7134 71.1666 44.8121C75.173 44.5295 79.1943 44.5295 83.2007 44.8121C86.4699 44.9534 89.7391 45.3775 93.026 44.1052V41.7373C93.7505 41.7373 94.5104 41.4015 94.8991 41.7373C96.8607 43.1156 98.6631 41.9493 100.501 41.5429C101.574 41.1926 102.729 41.1738 103.813 41.489C104.897 41.8042 105.861 42.4388 106.58 43.31C106.688 43.4944 106.833 43.6547 107.006 43.7811C107.178 43.9076 107.374 43.9975 107.583 44.0455C107.791 44.0935 108.007 44.0984 108.218 44.0601C108.428 44.0218 108.628 43.9409 108.806 43.8225C109.757 43.2261 110.903 43.0253 111.999 43.2631C113.096 43.5009 114.055 44.1584 114.673 45.0948L108.877 48.6291C109.407 50.7673 110.114 53.365 110.644 55.998C110.937 56.9615 110.894 57.996 110.521 58.9314C110.173 59.6497 109.593 60.2292 108.874 60.5757C108.155 60.9222 107.341 61.0153 106.562 60.8399C105.449 60.5218 104.318 60.2921 103.205 59.9917C99.9708 59.0551 99.8117 58.9491 98.0269 61.6705C96.2421 64.3918 94.4927 67.8024 92.7256 70.8949C91.4709 73.1215 90.0749 75.3127 88.9793 77.6276C88.5466 78.8953 88.2446 80.2039 88.078 81.533C87.5098 83.3309 87.4382 85.2489 87.8705 87.0842C88.3029 88.9195 89.2233 90.6039 90.5343 91.959C91.3768 93.1262 92.0768 94.3898 92.6195 95.723H86.5936C85.7454 92.0121 83.9959 88.4778 83.9783 84.5018C83.8385 83.6442 83.5767 82.8111 83.2007 82.0278C80.4087 87.1171 81.8401 91.4819 85.9575 95.3873L85.2506 95.6877H79.5604C78.5708 89.7855 77.652 83.8833 76.5564 78.0164C76.3855 77.6525 76.1262 77.3373 75.802 77.0996C75.4778 76.8619 75.0992 76.7093 74.7008 76.6557C72.3807 76.6236 70.0609 76.7416 67.756 77.0092C62.576 77.4869 57.3531 76.8852 52.4174 75.242C51.1998 75.0276 49.9458 75.1863 48.82 75.6971C47.6942 76.208 46.7491 77.0472 46.1087 78.1048L44.7657 76.8678L44.0765 78.0518L41.7616 77.4509C41.5146 78.1232 41.4064 78.8386 41.4435 79.5538C42.3742 82.876 43.405 86.1688 44.536 89.4321C44.7834 90.1212 45.6139 90.616 46.144 91.1992C47.275 92.4715 48.3883 93.7615 49.5016 95.0515L49.1129 95.7761C47.2397 95.7761 45.3842 95.8644 43.5287 95.7761C43.1753 95.7761 42.8572 94.8572 42.5921 94.327C42.1327 93.3904 41.7793 92.4185 41.3198 91.4996C40.8604 90.5807 40.4893 90.2626 40.1712 89.5911C38.5984 86.1452 37.0787 82.6816 35.5236 79.2357H34.7814C34.4186 80.0385 34.1746 80.8897 34.0569 81.7627C34.0151 83.8812 34.1689 85.9989 34.5164 88.0891C34.9445 89.2189 35.5932 90.2521 36.4248 91.1285C37.4144 92.5245 38.4571 93.9029 39.7647 95.6524H33.0497C31.2825 89.2023 29.6037 82.8937 27.9426 76.5674C27.6892 75.8755 27.6583 75.1218 27.8543 74.4115C30.8408 67.4843 29.8334 60.5042 28.3667 53.4887C28.3667 53.2236 28.3668 52.9409 28.2431 52.6758C28.1693 52.4836 28.0868 52.2949 27.9956 52.1103V52.1103Z" fill="#BBA357"/>
</svg>
