<svg xmlns="http://www.w3.org/2000/svg" fill="none" viewBox="0 0 20 21"><defs/><path fill="#F6F5ED" d="M10.004 5.288a5.119 5.119 0 00-5.13 5.124 5.119 5.119 0 005.13 5.124c2.84 0 5.13-2.288 5.13-5.124a5.119 5.119 0 00-5.13-5.124zm0 8.455a3.34 3.34 0 01-3.334-3.331 3.336 3.336 0 013.334-3.331 3.336 3.336 0 013.335 3.33 3.34 3.34 0 01-3.335 3.332zm6.536-8.665c0 .665-.536 1.195-1.196 1.195a1.196 1.196 0 111.196-1.195zm3.398 1.213c-.076-1.6-.442-3.019-1.617-4.187C17.151.935 15.732.57 14.13.49 12.478.396 7.527.396 5.875.49 4.277.565 2.857.93 1.683 2.1.509 3.267.147 4.685.067 6.286c-.094 1.65-.094 6.596 0 8.246.076 1.6.442 3.019 1.616 4.187 1.174 1.168 2.59 1.534 4.192 1.614 1.652.094 6.603.094 8.254 0 1.603-.075 3.023-.441 4.192-1.614 1.17-1.168 1.536-2.587 1.616-4.187.094-1.65.094-6.592 0-8.242zm-2.134 10.012a3.374 3.374 0 01-1.902 1.9c-1.317.521-4.442.401-5.898.401-1.455 0-4.584.116-5.897-.401a3.374 3.374 0 01-1.902-1.9c-.522-1.316-.401-4.437-.401-5.891 0-1.454-.117-4.58.401-5.891a3.374 3.374 0 011.902-1.9C5.424 2.1 8.55 2.22 10.004 2.22c1.456 0 4.585-.116 5.898.401a3.374 3.374 0 011.902 1.9c.522 1.315.401 4.437.401 5.89 0 1.455.12 4.58-.401 5.892z"/></svg>